HIERARCHY
ROOT Hips
{
  OFFSET 35.6841 98.9337 13.553
  CHANNELS 6 Xposition Yposition Zposition Zrotation Xrotation Yrotation
  JOINT ToSpine
  {
    OFFSET -0.0105055 1.38907 -7.13956
    CHANNELS 3 Zrotation Xrotation Yrotation
    JOINT Spine
    {
      OFFSET 0.0105055 10 1
      CHANNELS 3 Zrotation Xrotation Yrotation
      JOINT Spine1
      {
        OFFSET 0 12 1.60637
        CHANNELS 3 Zrotation Xrotation Yrotation
        JOINT Neck
        {
          OFFSET 0 27 2.26658
          CHANNELS 3 Zrotation Xrotation Yrotation
          JOINT Head
          {
            OFFSET 0 9 2.12705
            CHANNELS 3 Zrotation Xrotation Yrotation
            End Site
            {
              OFFSET 0 11 2
            }
          }
        }
        JOINT LeftShoulder
        {
          OFFSET 8 19.6109 2.86452
          CHANNELS 3 Zrotation Xrotation Yrotation
          JOINT LeftArm
          {
            OFFSET 12 1 0.681055
            CHANNELS 3 Zrotation Xrotation Yrotation
            JOINT LeftForeArm
            {
              OFFSET 19 0 -1.52608
              CHANNELS 3 Zrotation Xrotation Yrotation
              JOINT LeftHand
              {
                OFFSET 23 0 0
                CHANNELS 3 Zrotation Xrotation Yrotation
                End Site
                {
                  OFFSET 10 0 0
                }
              }
            }
          }
        }
        JOINT RightShoulder
        {
          OFFSET -8 19.6109 2.86452
          CHANNELS 3 Zrotation Xrotation Yrotation
          JOINT RightArm
          {
            OFFSET -12 1 0.681055
            CHANNELS 3 Zrotation Xrotation Yrotation
            JOINT RightForeArm
            {
              OFFSET -19 0 -1.52608
              CHANNELS 3 Zrotation Xrotation Yrotation
              JOINT RightHand
              {
                OFFSET -23 0 0
                CHANNELS 3 Zrotation Xrotation Yrotation
                End Site
                {
                  OFFSET -10 0 0
                }
              }
            }
          }
        }
      }
    }
  }
  JOINT LeftUpLeg
  {
    OFFSET 9 -7.17245 0
    CHANNELS 3 Zrotation Xrotation Yrotation
    JOINT LeftLeg
    {
      OFFSET 0 -44.1113 0
      CHANNELS 3 Zrotation Xrotation Yrotation
      JOINT LeftFoot
      {
        OFFSET 0 -36.1829 0
        CHANNELS 3 Zrotation Xrotation Yrotation
        JOINT LeftToeBase
        {
          OFFSET 0 -4.84184 13
          CHANNELS 3 Zrotation Xrotation Yrotation
          End Site
          {
            OFFSET 0 1 6
          }
        }
      }
    }
  }
  JOINT RightUpLeg
  {
    OFFSET -9 -7.17245 0
    CHANNELS 3 Zrotation Xrotation Yrotation
    JOINT RightLeg
    {
      OFFSET 0 -44.0551 0
      CHANNELS 3 Zrotation Xrotation Yrotation
      JOINT RightFoot
      {
        OFFSET 0 -36.1469 0
        CHANNELS 3 Zrotation Xrotation Yrotation
        JOINT RightToeBase
        {
          OFFSET 0 -4.92256 13
          CHANNELS 3 Zrotation Xrotation Yrotation
          End Site
          {
            OFFSET 0 1 6
          }
        }
      }
    }
  }
}
MOTION
Frames:	8
Frame Time:	0.0333333
35.6841 98.9407 13.5554 1.02305 -4.53399 1.1422 0 0 0 -2.24258 -0.113762 0.0877527 0.981652 11.5685 -0.278607 2.50598 -16.1286 0.173184 -3.29039 5.43578 1.42995 -29.9626 6.0344 -13.1454 -41.0706 25.5487 -8.35207 -11.7467 -7.08456 -12.126 6.36574 0.030139 0.57564 29.537 6.84987 15.5802 44.2323 18.2888 7.21374 8.42538 -3.04887 12.1279 -0.0963613 -0.00394296 4.67712 0.729281 6.88101 8.04792 -0.107752 5.25 -2.98123 -2.38326 -3.56827 -0.073841 -2.03608 -1.22923 4.38799 -2.09516 6.87331 -7.83034 0.0720963 3.16363 1.38073 0.597204 -6.71693 0.0288362 -0.72761 1.85617 2.43198 
35.6871 98.9539 13.5655 1.01313 -4.58754 1.15228 0 0 0 -2.47255 -0.0949032 0.0857533 1.43751 11.6034 -0.392315 2.19203 -16.0302 0.178061 -3.22773 5.28439 1.36661 -30.3507 6.10436 -13.1613 -40.8233 25.9866 -8.15842 -11.7442 -7.70725 -12.4564 6.27836 0.0310833 0.561339 29.357 6.82827 15.6143 44.2448 18.2874 7.24572 8.44865 -3.03662 12.0575 -0.0775272 -0.00322037 4.70619 0.790183 7.10332 8.15171 -0.281671 4.90354 -3.03235 -2.3963 -3.42941 -0.0785709 -2.05155 -1.23356 4.41883 -2.08236 6.9324 -7.87361 0.080568 3.14739 1.40712 0.514858 -6.64005 0.0312601 -0.437873 1.85521 1.63527 
35.6987 98.9363 13.5671 0.95088 -4.57504 1.12754 0 0 0 -2.50495 -0.0887066 0.112536 1.75996 11.4863 -0.415526 2.12173 -15.5843 -0.0279913 -3.5961 4.72434 1.25448 -30.5294 6.18434 -13.2972 -40.7434 26.4564 -7.90312 -11.7784 -8.24399 -12.7427 6.33809 0.0270727 0.491122 29.2188 6.78729 15.5736 44.3788 18.1083 7.10608 8.33062 -2.7148 12.0789 0.347217 0.0141575 4.6632 0.898482 7.29223 8.40102 -0.964604 4.40882 -2.59081 1.65714 -2.43151 0.0386504 -2.13964 -3.35307 4.17379 -2.00937 6.93591 -7.8988 0.0276015 3.1443 1.47021 0.764259 -6.7844 0.0452524 -0.28885 2.23529 1.30704 
35.7142 98.9583 13.55 1.15507 -4.32952 1.19231 0 0 0 -2.42292 -0.450242 0.158046 1.2202 11.6068 -0.18563 2.52356 -15.6913 -0.113332 -3.55991 4.76805 1.22843 -30.1355 6.1875 -13.4828 -40.8539 25.944 -7.9903 -11.7349 -7.63021 -12.3985 6.24441 0.00613653 0.112071 29.6076 6.7501 15.2705 44.3803 17.8755 7.15652 8.23395 -2.52815 12.1009 0.434089 0.0175863 4.62654 0.621037 7.14391 8.21858 -0.942855 4.03424 -1.73953 2.59107 -2.4739 0.0556726 -1.45704 -2.72162 2.68754 -2.21962 6.67917 -7.99931 -0.0320224 3.11297 1.53016 0.901232 -6.70585 0.0529989 -0.396784 2.08643 1.56922 
35.7386 98.9709 13.5494 1.16852 -4.3455 1.20004 0 0 0 -2.18805 -0.468285 0.0404835 0.887163 11.6734 -0.21282 2.38096 -15.7883 0.0785896 -3.18873 4.66113 1.2827 -29.9687 6.08003 -13.2672 -40.5134 27.5718 -8.05398 -11.8695 -8.79782 -12.9641 5.69532 0.00850885 0.168364 29.5818 6.75638 15.3009 44.3601 18.2003 7.35243 8.46543 -3.3316 12.109 0.386496 0.0151694 4.47105 0.578718 7.21098 8.20711 -0.95 3.89558 -1.65938 2.66176 -2.31968 0.0554123 -1.47817 -2.91266 2.69008 -2.25129 6.68076 -8.04273 0.00103121 3.12814 1.55369 0.524436 -6.589 0.030434 -0.497039 1.81087 1.78792 
35.7357 98.969 13.5089 1.17324 -4.28437 1.123 0 0 0 -2.27654 -0.410972 0.140258 0.902974 11.4807 -0.114158 2.76686 -15.6965 -0.00777226 -3.48815 4.60213 1.34187 -29.7784 6.11003 -13.4356 -41.2328 25.3269 -7.96482 -11.5137 -6.52484 -12.2448 6.01516 0.0136569 0.254784 29.8064 6.83173 15.3925 44.3114 17.7811 7.09061 8.21506 -2.58598 12.1221 0.770354 0.0314421 4.709 0.522867 7.10136 8.11392 -0.819213 3.96659 -1.68942 2.05836 -2.57796 0.0534534 -1.60119 -2.57915 3.06324 -2.25597 6.58691 -8.01335 -0.064907 3.14956 1.61104 1.23431 -6.84069 0.0736207 -0.17819 2.27365 1.01501 
35.7317 98.9665 13.5181 1.13055 -4.36775 1.23315 0 0 0 -2.13004 -0.345509 0.0770286 0.748879 11.5196 -0.150621 2.64106 -15.8405 -0.0516708 -3.31018 4.78232 1.23601 -29.6557 6.08044 -13.4105 -41.1607 25.398 -7.99422 -11.5663 -6.69776 -12.2022 5.46752 -0.00279069 -0.055416 29.876 6.82369 15.3348 44.1893 17.8248 7.23099 8.311 -2.59643 11.9611 0.804375 0.0367373 4.90109 0.651839 7.09631 8.22734 -0.920963 4.15766 -1.85359 2.33052 -2.57062 0.0495378 -1.58025 -2.78875 2.9637 -2.14836 6.74531 -7.91777 -0.136305 3.00271 1.39814 1.08102 -6.78039 0.0641504 -0.373339 2.319 1.55294 
35.7773 98.9687 13.5013 1.16698 -4.4067 1.19753 0 0 0 -2.56455 -0.240263 0.136695 1.60267 11.4485 -0.309809 1.65953 -15.7695 0.0691756 -2.72987 4.66803 1.04039 -30.708 6.27163 -13.4503 -40.1684 27.7838 -7.72 -11.882 -9.32442 -13.2593 5.67591 0.000400232 0.00697542 29.369 6.70383 15.2653 44.3417 17.8631 7.27689 8.32833 -2.49742 11.9009 0.644866 0.0400136 4.93955 0.533432 7.19681 8.14307 -0.86453 4.00671 -1.69201 2.4942 -2.46953 0.044916 -1.43091 -2.60966 2.65125 -2.26696 6.7467 -8.02528 -0.042545 3.0655 1.59884 0.68791 -6.63187 0.039798 -0.373959 2.14178 1.51896 
